<svg width="760" height="560" viewBox="0 0 760 560" fill="none" xmlns="http://www.w3.org/2000/svg">
  <rect width="760" height="560" rx="36" fill="#EFF8FF"/>
  <circle cx="640" cy="96" r="48" fill="#FFDDE7"/>
  <circle cx="126" cy="112" r="34" fill="#DCEEFF"/>
  <rect x="88" y="118" width="584" height="346" rx="28" fill="white"/>
  <rect x="128" y="160" width="164" height="232" rx="22" fill="#F7FBFF"/>
  <rect x="312" y="160" width="320" height="72" rx="22" fill="#EAF5FF"/>
  <rect x="312" y="250" width="320" height="60" rx="18" fill="#FFF4F7"/>
  <rect x="312" y="328" width="220" height="22" rx="11" fill="#D7EAFA"/>
  <rect x="312" y="364" width="178" height="22" rx="11" fill="#D7EAFA"/>
  <circle cx="210" cy="222" r="44" fill="#D9EDFF"/>
  <path d="M190 218C190 206.954 198.954 198 210 198C221.046 198 230 206.954 230 218V248H190V218Z" fill="#2B78C5"/>
  <circle cx="210" cy="212" r="20" fill="#FFD8C8"/>
  <path d="M176 387C183.333 352.333 204.8 335 240.4 335C276 335 297 352.333 303.4 387H176Z" fill="#2B78C5"/>
  <circle cx="528" cy="210" r="34" fill="#D9EDFF"/>
  <path d="M512 208C512 199.163 519.163 192 528 192C536.837 192 544 199.163 544 208V232H512V208Z" fill="#FF9BB2"/>
  <circle cx="528" cy="202" r="16" fill="#FFD8C8"/>
  <rect x="474" y="366" width="126" height="50" rx="18" fill="#2B78C5"/>
  <path d="M537 381V401" stroke="white" stroke-width="8" stroke-linecap="round"/>
  <path d="M527 391H547" stroke="white" stroke-width="8" stroke-linecap="round"/>
</svg>
